<svg width="14" height="24" viewBox="0 0 14 24" fill="none" xmlns="http://www.w3.org/2000/svg">
<path d="M7.73333 10.5333C4.70667 9.74667 3.73333 8.93333 3.73333 7.66667C3.73333 6.21333 5.08 5.2 7.33333 5.2C9.70667 5.2 10.5867 6.33333 10.6667 8H13.6133C13.52 5.70667 12.12 3.6 9.33333 2.92V0H5.33333V2.88C2.74667 3.44 0.666666 5.12 0.666666 7.69333C0.666666 10.7733 3.21333 12.3067 6.93333 13.2C10.2667 14 10.9333 15.1733 10.9333 16.4133C10.9333 17.3333 10.28 18.8 7.33333 18.8C4.58667 18.8 3.50667 17.5733 3.36 16H0.426666C0.586666 18.92 2.77333 20.56 5.33333 21.1067V24H9.33333V21.1333C11.9333 20.64 14 19.1333 14 16.4C14 12.6133 10.76 11.32 7.73333 10.5333Z" fill="#096249"/>
</svg>
