<svg width="100" height="51" viewBox="0 0 100 51" fill="none" xmlns="http://www.w3.org/2000/svg">
<path d="M13.875 30.0469C13.875 29.6406 13.8125 29.276 13.6875 28.9531C13.5729 28.6198 13.3542 28.3177 13.0312 28.0469C12.7083 27.7656 12.2552 27.4896 11.6719 27.2188C11.0885 26.9479 10.3333 26.6667 9.40625 26.375C8.375 26.0417 7.39583 25.6667 6.46875 25.25C5.55208 24.8333 4.73958 24.349 4.03125 23.7969C3.33333 23.2344 2.78125 22.5833 2.375 21.8438C1.97917 21.1042 1.78125 20.2448 1.78125 19.2656C1.78125 18.3177 1.98958 17.4583 2.40625 16.6875C2.82292 15.9062 3.40625 15.2396 4.15625 14.6875C4.90625 14.125 5.79167 13.6927 6.8125 13.3906C7.84375 13.0885 8.97396 12.9375 10.2031 12.9375C11.8802 12.9375 13.3438 13.2396 14.5938 13.8438C15.8438 14.4479 16.8125 15.276 17.5 16.3281C18.1979 17.3802 18.5469 18.5833 18.5469 19.9375H13.8906C13.8906 19.2708 13.75 18.6875 13.4688 18.1875C13.1979 17.6771 12.7812 17.276 12.2188 16.9844C11.6667 16.6927 10.9688 16.5469 10.125 16.5469C9.3125 16.5469 8.63542 16.6719 8.09375 16.9219C7.55208 17.1615 7.14583 17.4896 6.875 17.9062C6.60417 18.3125 6.46875 18.7708 6.46875 19.2812C6.46875 19.6667 6.5625 20.0156 6.75 20.3281C6.94792 20.6406 7.23958 20.9323 7.625 21.2031C8.01042 21.474 8.48438 21.7292 9.04688 21.9688C9.60938 22.2083 10.2604 22.4427 11 22.6719C12.2396 23.0469 13.3281 23.4688 14.2656 23.9375C15.2135 24.4062 16.0052 24.9323 16.6406 25.5156C17.276 26.099 17.7552 26.7604 18.0781 27.5C18.401 28.2396 18.5625 29.0781 18.5625 30.0156C18.5625 31.0052 18.3698 31.8906 17.9844 32.6719C17.599 33.4531 17.0417 34.1146 16.3125 34.6562C15.5833 35.1979 14.7135 35.6094 13.7031 35.8906C12.6927 36.1719 11.5625 36.3125 10.3125 36.3125C9.1875 36.3125 8.07812 36.1667 6.98438 35.875C5.89062 35.5729 4.89583 35.1198 4 34.5156C3.11458 33.9115 2.40625 33.1406 1.875 32.2031C1.34375 31.2656 1.07812 30.1562 1.07812 28.875H5.78125C5.78125 29.5833 5.89062 30.1823 6.10938 30.6719C6.32812 31.1615 6.63542 31.5573 7.03125 31.8594C7.4375 32.1615 7.91667 32.3802 8.46875 32.5156C9.03125 32.651 9.64583 32.7188 10.3125 32.7188C11.125 32.7188 11.7917 32.6042 12.3125 32.375C12.8438 32.1458 13.2344 31.8281 13.4844 31.4219C13.7448 31.0156 13.875 30.5573 13.875 30.0469Z" fill="#096249"/>
<path d="M26.2188 19.0938V36H21.7031V19.0938H26.2188ZM21.4219 14.6875C21.4219 14.0312 21.651 13.4896 22.1094 13.0625C22.5677 12.6354 23.1823 12.4219 23.9531 12.4219C24.7135 12.4219 25.3229 12.6354 25.7812 13.0625C26.25 13.4896 26.4844 14.0312 26.4844 14.6875C26.4844 15.3438 26.25 15.8854 25.7812 16.3125C25.3229 16.7396 24.7135 16.9531 23.9531 16.9531C23.1823 16.9531 22.5677 16.7396 22.1094 16.3125C21.651 15.8854 21.4219 15.3438 21.4219 14.6875ZM34.3438 22.7031V36H29.8438V19.0938H34.0625L34.3438 22.7031ZM33.6875 26.9531H32.4688C32.4688 25.7031 32.6302 24.5781 32.9531 23.5781C33.276 22.5677 33.7292 21.7083 34.3125 21C34.8958 20.2812 35.5885 19.7344 36.3906 19.3594C37.2031 18.974 38.1094 18.7812 39.1094 18.7812C39.901 18.7812 40.625 18.8958 41.2812 19.125C41.9375 19.3542 42.5 19.7188 42.9688 20.2188C43.4479 20.7188 43.8125 21.3802 44.0625 22.2031C44.3229 23.026 44.4531 24.0312 44.4531 25.2188V36H39.9219V25.2031C39.9219 24.4531 39.8177 23.8698 39.6094 23.4531C39.401 23.0365 39.0938 22.7448 38.6875 22.5781C38.2917 22.401 37.8021 22.3125 37.2188 22.3125C36.6146 22.3125 36.0885 22.4323 35.6406 22.6719C35.2031 22.9115 34.8385 23.2448 34.5469 23.6719C34.2656 24.0885 34.0521 24.5781 33.9062 25.1406C33.7604 25.7031 33.6875 26.3073 33.6875 26.9531ZM47.1562 27.7188V27.3906C47.1562 26.151 47.3333 25.0104 47.6875 23.9688C48.0417 22.9167 48.5573 22.0052 49.2344 21.2344C49.9115 20.4635 50.7448 19.8646 51.7344 19.4375C52.724 19 53.8594 18.7812 55.1406 18.7812C56.4219 18.7812 57.5625 19 58.5625 19.4375C59.5625 19.8646 60.401 20.4635 61.0781 21.2344C61.7656 22.0052 62.2865 22.9167 62.6406 23.9688C62.9948 25.0104 63.1719 26.151 63.1719 27.3906V27.7188C63.1719 28.9479 62.9948 30.0885 62.6406 31.1406C62.2865 32.1823 61.7656 33.0938 61.0781 33.875C60.401 34.6458 59.5677 35.2448 58.5781 35.6719C57.5885 36.099 56.4531 36.3125 55.1719 36.3125C53.8906 36.3125 52.75 36.099 51.75 35.6719C50.7604 35.2448 49.9219 34.6458 49.2344 33.875C48.5573 33.0938 48.0417 32.1823 47.6875 31.1406C47.3333 30.0885 47.1562 28.9479 47.1562 27.7188ZM51.6562 27.3906V27.7188C51.6562 28.4271 51.7188 29.0885 51.8438 29.7031C51.9688 30.3177 52.1667 30.8594 52.4375 31.3281C52.7188 31.7865 53.0833 32.1458 53.5312 32.4062C53.9792 32.6667 54.526 32.7969 55.1719 32.7969C55.7969 32.7969 56.3333 32.6667 56.7812 32.4062C57.2292 32.1458 57.5885 31.7865 57.8594 31.3281C58.1302 30.8594 58.3281 30.3177 58.4531 29.7031C58.5885 29.0885 58.6562 28.4271 58.6562 27.7188V27.3906C58.6562 26.7031 58.5885 26.0573 58.4531 25.4531C58.3281 24.8385 58.125 24.2969 57.8438 23.8281C57.5729 23.349 57.2135 22.974 56.7656 22.7031C56.3177 22.4323 55.776 22.2969 55.1406 22.2969C54.5052 22.2969 53.9635 22.4323 53.5156 22.7031C53.0781 22.974 52.7188 23.349 52.4375 23.8281C52.1667 24.2969 51.9688 24.8385 51.8438 25.4531C51.7188 26.0573 51.6562 26.7031 51.6562 27.3906ZM70.4375 22.3438V42.5H65.9375V19.0938H70.1094L70.4375 22.3438ZM81.1406 27.3594V27.6875C81.1406 28.9167 80.9948 30.0573 80.7031 31.1094C80.4219 32.1615 80.0052 33.0781 79.4531 33.8594C78.901 34.6302 78.2135 35.2344 77.3906 35.6719C76.5781 36.099 75.6406 36.3125 74.5781 36.3125C73.5469 36.3125 72.651 36.1042 71.8906 35.6875C71.1302 35.2708 70.4896 34.6875 69.9688 33.9375C69.4583 33.1771 69.0469 32.2969 68.7344 31.2969C68.4219 30.2969 68.1823 29.224 68.0156 28.0781V27.2188C68.1823 25.9896 68.4219 24.8646 68.7344 23.8438C69.0469 22.8125 69.4583 21.9219 69.9688 21.1719C70.4896 20.4115 71.125 19.8229 71.875 19.4062C72.6354 18.9896 73.526 18.7812 74.5469 18.7812C75.6198 18.7812 76.5625 18.9844 77.375 19.3906C78.1979 19.7969 78.8854 20.3802 79.4375 21.1406C80 21.901 80.4219 22.8073 80.7031 23.8594C80.9948 24.9115 81.1406 26.0781 81.1406 27.3594ZM76.625 27.6875V27.3594C76.625 26.6406 76.5625 25.9792 76.4375 25.375C76.3229 24.7604 76.1354 24.224 75.875 23.7656C75.625 23.3073 75.2917 22.9531 74.875 22.7031C74.4688 22.4427 73.974 22.3125 73.3906 22.3125C72.776 22.3125 72.25 22.4115 71.8125 22.6094C71.3854 22.8073 71.0365 23.0938 70.7656 23.4688C70.4948 23.8438 70.2917 24.2917 70.1562 24.8125C70.0208 25.3333 69.9375 25.9219 69.9062 26.5781V28.75C69.9583 29.5208 70.1042 30.2135 70.3438 30.8281C70.5833 31.4323 70.9531 31.9115 71.4531 32.2656C71.9531 32.6198 72.6094 32.7969 73.4219 32.7969C74.0156 32.7969 74.5156 32.6667 74.9219 32.4062C75.3281 32.1354 75.6562 31.7656 75.9062 31.2969C76.1667 30.8281 76.349 30.2865 76.4531 29.6719C76.5677 29.0573 76.625 28.3958 76.625 27.6875ZM91.7188 36.3125C90.4062 36.3125 89.2292 36.1042 88.1875 35.6875C87.1458 35.2604 86.2604 34.6719 85.5312 33.9219C84.8125 33.1719 84.2604 32.3021 83.875 31.3125C83.4896 30.3125 83.2969 29.25 83.2969 28.125V27.5C83.2969 26.2188 83.4792 25.0469 83.8438 23.9844C84.2083 22.9219 84.7292 22 85.4062 21.2188C86.0938 20.4375 86.9271 19.8385 87.9062 19.4219C88.8854 18.9948 89.9896 18.7812 91.2188 18.7812C92.4167 18.7812 93.4792 18.9792 94.4062 19.375C95.3333 19.7708 96.1094 20.3333 96.7344 21.0625C97.3698 21.7917 97.849 22.6667 98.1719 23.6875C98.4948 24.6979 98.6562 25.8229 98.6562 27.0625V28.9375H85.2188V25.9375H94.2344V25.5938C94.2344 24.9688 94.1198 24.4115 93.8906 23.9219C93.6719 23.4219 93.3385 23.026 92.8906 22.7344C92.4427 22.4427 91.8698 22.2969 91.1719 22.2969C90.5781 22.2969 90.0677 22.4271 89.6406 22.6875C89.2135 22.9479 88.8646 23.3125 88.5938 23.7812C88.3333 24.25 88.1354 24.8021 88 25.4375C87.875 26.0625 87.8125 26.75 87.8125 27.5V28.125C87.8125 28.8021 87.9062 29.4271 88.0938 30C88.2917 30.5729 88.5677 31.0677 88.9219 31.4844C89.2865 31.901 89.724 32.224 90.2344 32.4531C90.7552 32.6823 91.3438 32.7969 92 32.7969C92.8125 32.7969 93.5677 32.6406 94.2656 32.3281C94.974 32.0052 95.5833 31.5208 96.0938 30.875L98.2812 33.25C97.9271 33.7604 97.4427 34.25 96.8281 34.7188C96.224 35.1875 95.4948 35.5729 94.6406 35.875C93.7865 36.1667 92.8125 36.3125 91.7188 36.3125Z" fill="#E1E1E6"/>
</svg>
