<svg width="80" height="42" viewBox="0 0 80 42" fill="none" xmlns="http://www.w3.org/2000/svg">
<path d="M11.0936 24.7402C11.0936 24.4154 11.0437 24.1239 10.9437 23.8657C10.8521 23.5992 10.6772 23.3577 10.419 23.1411C10.1608 22.9163 9.79855 22.6956 9.33215 22.479C8.86575 22.2625 8.26193 22.0376 7.52069 21.8044C6.69616 21.5379 5.91328 21.2381 5.17203 20.9049C4.43912 20.5718 3.78949 20.1845 3.22315 19.7431C2.66514 19.2934 2.22372 18.7728 1.89891 18.1815C1.58243 17.5902 1.42418 16.9031 1.42418 16.1202C1.42418 15.3623 1.59075 14.6752 1.9239 14.0589C2.25704 13.4342 2.72344 12.9012 3.32309 12.4598C3.92275 12.01 4.63068 11.6644 5.44688 11.4229C6.2714 11.1813 7.17505 11.0606 8.15782 11.0606C9.49872 11.0606 10.6689 11.3021 11.6683 11.7852C12.6677 12.2682 13.4423 12.9303 13.992 13.7715C14.55 14.6127 14.829 15.5747 14.829 16.6574H11.1061C11.1061 16.1243 10.9937 15.6579 10.7688 15.2582C10.5523 14.8501 10.2191 14.5294 9.7694 14.2962C9.32798 14.063 8.76997 13.9464 8.09536 13.9464C7.44573 13.9464 6.90437 14.0464 6.47129 14.2462C6.0382 14.4378 5.71339 14.7002 5.49685 15.0333C5.2803 15.3581 5.17203 15.7246 5.17203 16.1327C5.17203 16.4408 5.24699 16.7198 5.3969 16.9697C5.55515 17.2195 5.78835 17.4527 6.0965 17.6693C6.40466 17.8858 6.78361 18.0899 7.23335 18.2814C7.68309 18.473 8.20363 18.6604 8.79496 18.8436C9.78605 19.1434 10.6564 19.4807 11.406 19.8555C12.1639 20.2303 12.7968 20.6509 13.3049 21.1173C13.8129 21.5837 14.196 22.1126 14.4542 22.7039C14.7124 23.2952 14.8415 23.9657 14.8415 24.7152C14.8415 25.5065 14.6874 26.2144 14.3793 26.839C14.0711 27.4637 13.6255 27.9925 13.0425 28.4256C12.4595 28.8587 11.7641 29.1877 10.9562 29.4126C10.1483 29.6374 9.2447 29.7499 8.24527 29.7499C7.34579 29.7499 6.4588 29.6333 5.5843 29.4001C4.7098 29.1585 3.91442 28.7962 3.19817 28.3132C2.49024 27.8301 1.9239 27.2138 1.49914 26.4642C1.07438 25.7147 0.862006 24.8277 0.862006 23.8033H4.62235C4.62235 24.3696 4.7098 24.8485 4.8847 25.2399C5.0596 25.6314 5.30529 25.9479 5.62178 26.1894C5.94659 26.4309 6.3297 26.6058 6.77112 26.7141C7.22086 26.8224 7.71224 26.8765 8.24527 26.8765C8.8949 26.8765 9.42793 26.7849 9.84435 26.6017C10.2691 26.4184 10.5814 26.1644 10.7813 25.8396C10.9895 25.5148 11.0936 25.1483 11.0936 24.7402Z" fill="#096249"/>
<path d="M20.963 15.9828V29.5H17.3525V15.9828H20.963ZM17.1277 12.4598C17.1277 11.9351 17.3109 11.502 17.6774 11.1605C18.0438 10.819 18.5352 10.6483 19.1515 10.6483C19.7595 10.6483 20.2467 10.819 20.6132 11.1605C20.988 11.502 21.1754 11.9351 21.1754 12.4598C21.1754 12.9845 20.988 13.4176 20.6132 13.759C20.2467 14.1005 19.7595 14.2712 19.1515 14.2712C18.5352 14.2712 18.0438 14.1005 17.6774 13.759C17.3109 13.4176 17.1277 12.9845 17.1277 12.4598ZM27.4592 18.8686V29.5H23.8613V15.9828H27.2344L27.4592 18.8686ZM26.9346 22.2666H25.9601C25.9601 21.2672 26.0892 20.3677 26.3474 19.5682C26.6056 18.7603 26.9679 18.0732 27.4343 17.5069C27.9007 16.9322 28.4545 16.495 29.0958 16.1951C29.7454 15.887 30.47 15.7329 31.2696 15.7329C31.9025 15.7329 32.4814 15.8245 33.0061 16.0077C33.5308 16.191 33.9805 16.4825 34.3553 16.8822C34.7384 17.282 35.0299 17.8109 35.2298 18.4688C35.438 19.1268 35.5421 19.9305 35.5421 20.8799V29.5H31.9192V20.8675C31.9192 20.2678 31.8359 19.8014 31.6693 19.4683C31.5028 19.1351 31.2571 18.9019 30.9323 18.7687C30.6158 18.6271 30.2243 18.5563 29.7579 18.5563C29.2749 18.5563 28.8543 18.6521 28.4962 18.8436C28.1464 19.0352 27.8549 19.3017 27.6217 19.6432C27.3968 19.9763 27.2261 20.3677 27.1095 20.8175C26.9929 21.2672 26.9346 21.7503 26.9346 22.2666ZM37.7034 22.8788V22.6164C37.7034 21.6253 37.845 20.7134 38.1281 19.8805C38.4113 19.0393 38.8236 18.3106 39.3649 17.6943C39.9063 17.078 40.5726 16.5991 41.3638 16.2576C42.155 15.9078 43.0628 15.7329 44.0872 15.7329C45.1116 15.7329 46.0236 15.9078 46.8231 16.2576C47.6227 16.5991 48.2931 17.078 48.8345 17.6943C49.3842 18.3106 49.8006 19.0393 50.0838 19.8805C50.3669 20.7134 50.5085 21.6253 50.5085 22.6164V22.8788C50.5085 23.8616 50.3669 24.7735 50.0838 25.6147C49.8006 26.4476 49.3842 27.1763 48.8345 27.801C48.2931 28.4173 47.6268 28.8962 46.8356 29.2377C46.0444 29.5791 45.1366 29.7499 44.1122 29.7499C43.0878 29.7499 42.1758 29.5791 41.3763 29.2377C40.5851 28.8962 39.9146 28.4173 39.3649 27.801C38.8236 27.1763 38.4113 26.4476 38.1281 25.6147C37.845 24.7735 37.7034 23.8616 37.7034 22.8788ZM41.3013 22.6164V22.8788C41.3013 23.4451 41.3513 23.974 41.4512 24.4654C41.5512 24.9568 41.7094 25.3899 41.926 25.7646C42.1508 26.1311 42.4423 26.4184 42.8004 26.6266C43.1586 26.8349 43.5958 26.939 44.1122 26.939C44.6119 26.939 45.0408 26.8349 45.399 26.6266C45.7571 26.4184 46.0444 26.1311 46.261 25.7646C46.4775 25.3899 46.6357 24.9568 46.7357 24.4654C46.844 23.974 46.8981 23.4451 46.8981 22.8788V22.6164C46.8981 22.0668 46.844 21.5504 46.7357 21.0673C46.6357 20.576 46.4733 20.1429 46.2485 19.7681C46.0319 19.385 45.7446 19.0851 45.3865 18.8686C45.0283 18.6521 44.5953 18.5438 44.0872 18.5438C43.5792 18.5438 43.1461 18.6521 42.788 18.8686C42.4382 19.0851 42.1508 19.385 41.926 19.7681C41.7094 20.1429 41.5512 20.576 41.4512 21.0673C41.3513 21.5504 41.3013 22.0668 41.3013 22.6164ZM56.3177 18.5813V34.697H52.7198V15.9828H56.0553L56.3177 18.5813ZM64.8753 22.5915V22.8538C64.8753 23.8366 64.7587 24.7486 64.5255 25.5897C64.3006 26.4309 63.9675 27.1638 63.5261 27.7885C63.0847 28.4048 62.535 28.8879 61.877 29.2377C61.2274 29.5791 60.4778 29.7499 59.6283 29.7499C58.8038 29.7499 58.0875 29.5833 57.4795 29.2501C56.8715 28.917 56.3593 28.4506 55.9429 27.8509C55.5348 27.243 55.2058 26.5392 54.956 25.7397C54.7061 24.9401 54.5146 24.0823 54.3813 23.1661V22.479C54.5146 21.4963 54.7061 20.5968 54.956 19.7806C55.2058 18.956 55.5348 18.244 55.9429 17.6443C56.3593 17.0363 56.8674 16.5658 57.467 16.2326C58.075 15.8995 58.7871 15.7329 59.6033 15.7329C60.4612 15.7329 61.2149 15.8953 61.8645 16.2201C62.5225 16.5449 63.0722 17.0113 63.5136 17.6193C63.9633 18.2273 64.3006 18.9519 64.5255 19.7931C64.7587 20.6343 64.8753 21.5671 64.8753 22.5915ZM61.2649 22.8538V22.5915C61.2649 22.0168 61.2149 21.4879 61.1149 21.0049C61.0233 20.5135 60.8734 20.0846 60.6652 19.7181C60.4653 19.3517 60.1988 19.0685 59.8657 18.8686C59.5408 18.6604 59.1452 18.5563 58.6788 18.5563C58.1875 18.5563 57.7669 18.6354 57.4171 18.7936C57.0756 18.9519 56.7966 19.1809 56.58 19.4807C56.3635 19.7806 56.2011 20.1387 56.0928 20.5551C55.9846 20.9716 55.9179 21.4421 55.8929 21.9668V23.7033C55.9346 24.3196 56.0512 24.8735 56.2427 25.3649C56.4343 25.8479 56.73 26.231 57.1297 26.5142C57.5295 26.7974 58.0542 26.939 58.7038 26.939C59.1786 26.939 59.5783 26.8349 59.9031 26.6266C60.228 26.4101 60.4903 26.1144 60.6902 25.7397C60.8984 25.3649 61.0442 24.9318 61.1274 24.4404C61.2191 23.949 61.2649 23.4202 61.2649 22.8538ZM73.3329 29.7499C72.2835 29.7499 71.3424 29.5833 70.5096 29.2501C69.6767 28.9087 68.9688 28.4381 68.3858 27.8385C67.8111 27.2388 67.3697 26.5434 67.0615 25.7521C66.7534 24.9526 66.5993 24.1031 66.5993 23.2036V22.7039C66.5993 21.6795 66.7451 20.7425 67.0366 19.893C67.3281 19.0435 67.7445 18.3064 68.2858 17.6818C68.8355 17.0571 69.5018 16.5782 70.2847 16.2451C71.0676 15.9036 71.9504 15.7329 72.9332 15.7329C73.891 15.7329 74.7405 15.8911 75.4817 16.2076C76.2229 16.5241 76.8434 16.9739 77.3431 17.5569C77.8512 18.1398 78.2343 18.8394 78.4925 19.6556C78.7507 20.4635 78.8798 21.363 78.8798 22.3541V23.8532H68.1359V21.4546H75.3443V21.1798C75.3443 20.6801 75.2527 20.2345 75.0694 19.843C74.8945 19.4433 74.628 19.1268 74.2699 18.8936C73.9118 18.6604 73.4537 18.5438 72.8957 18.5438C72.421 18.5438 72.0129 18.6479 71.6714 18.8561C71.3299 19.0643 71.0509 19.3558 70.8344 19.7306C70.6262 20.1054 70.4679 20.5468 70.3596 21.0548C70.2597 21.5546 70.2097 22.1042 70.2097 22.7039V23.2036C70.2097 23.745 70.2847 24.2447 70.4346 24.7028C70.5928 25.1608 70.8136 25.5564 71.0967 25.8896C71.3882 26.2227 71.738 26.4809 72.1461 26.6641C72.5625 26.8474 73.0331 26.939 73.5578 26.939C74.2074 26.939 74.8113 26.814 75.3693 26.5642C75.9356 26.306 76.4228 25.9187 76.8309 25.4024L78.5799 27.3013C78.2968 27.7094 77.9095 28.1008 77.4181 28.4756C76.935 28.8504 76.352 29.1585 75.6691 29.4001C74.9862 29.6333 74.2074 29.7499 73.3329 29.7499Z" fill="#E1E1E6"/>
</svg>
